
        <svg xmlns="http://www.w3.org/2000/svg" xmlns:xlink="http://www.w3.org/1999/xlink" version="1.1" width="3141.8571229891986" height="892.2813036020584" viewBox="0 0 3141.8571229891986 892.2813036020584">
&#x9;&#x9;&#x9;
&#x9;&#x9;&#x9;<g transform="scale(7.092856149459924) translate(10, 10)">
&#x9;&#x9;&#x9;&#x9;<defs id="SvgjsDefs1034"></defs><g id="SvgjsG1035" featureKey="symbolContainer" transform="matrix(1.15,0,0,1.15,0,0)" fill="#fff">    <rect width="88" height="92"></rect></g><g id="SvgjsG1036" featureKey="monogramFeature-0" transform="matrix(1.4517941664269036,0,0,1.4517941664269036,23.428586295208266,-3.2612179420125997)" fill="#000000"><path d="M3.9 60 c-0.84 0 -1.44 -0.42 -1.44 -1.14 l0 -0.24 c0 -1.68 2.4 -2.4 2.4 -5.16 l0 -29.52 c0 -2.76 -2.4 -3.48 -2.4 -5.16 l0 -0.24 c0 -0.72 0.54 -1.14 1.38 -1.14 l28.2 0 c1.32 0 1.8 0.6 2.04 1.92 l1.44 7.56 c0.18 1.08 -0.48 1.74 -1.5 1.74 l-0.3 0 c-3.36 0 -5.1 -7.02 -9.36 -7.02 l-5.76 0 c-1.44 0 -2.76 0.72 -2.76 2.88 l0 13.44 l6.72 0 c2.76 0 3.6 -4.86 5.34 -4.86 l0.54 0 c0.72 0 1.14 0.54 1.14 1.38 l0 10.8 c0 0.84 -0.42 1.38 -1.14 1.38 l-0.54 0 c-1.74 0 -2.58 -4.5 -5.34 -4.5 l-6.72 0 l0 11.34 c0 2.76 2.7 3.48 2.7 5.16 l0 0.24 c0 0.72 -0.6 1.14 -1.44 1.14 l-13.2 0 z"></path></g><g id="SvgjsG1037" featureKey="nameFeature-0" transform="matrix(1.8914965257731764,0,0,1.8914965257731764,117.89794617575798,5.626811359363462)" fill="#fff"><path d="M2.6 40 c-0.56 0 -0.96 -0.28 -0.96 -0.76 l0 -0.16 c0 -1.12 1.6 -1.6 1.6 -3.44 l0 -19.68 c0 -1.84 -1.6 -2.32 -1.6 -3.44 l0 -0.16 c0 -0.48 0.36 -0.76 0.92 -0.76 l18.8 0 c0.88 0 1.2 0.4 1.36 1.28 l0.96 5.04 c0.12 0.72 -0.32 1.16 -1 1.16 l-0.2 0 c-2.24 0 -3.4 -4.68 -6.24 -4.68 l-3.84 0 c-0.96 0 -1.84 0.48 -1.84 1.92 l0 8.96 l4.48 0 c1.84 0 2.4 -3.24 3.56 -3.24 l0.36 0 c0.48 0 0.76 0.36 0.76 0.92 l0 7.2 c0 0.56 -0.28 0.92 -0.76 0.92 l-0.36 0 c-1.16 0 -1.72 -3 -3.56 -3 l-4.48 0 l0 7.56 c0 1.84 1.8 2.32 1.8 3.44 l0 0.16 c0 0.48 -0.4 0.76 -0.96 0.76 l-8.8 0 z M25.880000000000003 40 c-0.56 0 -0.92 -0.28 -0.92 -0.76 l0 -0.16 c0 -1.16 1.56 -1.6 1.56 -3.44 l0 -18.28 c0 -1.88 -1.56 -2.4 -1.56 -3.4 l0 -0.16 c0 -0.44 0.36 -0.64 0.88 -0.92 l6.04 -2.96 c1.12 -0.56 1.84 0.12 1.84 0.84 l0 24.88 c0 1.84 1.76 2.28 1.76 3.44 l0 0.16 c0 0.48 -0.4 0.76 -0.96 0.76 l-8.64 0 z M48.160000000000004 40.4 c-6.12 0 -11.08 -4.24 -11.08 -10.04 c0 -5.92 5.08 -9.96 10.8 -9.96 c6 0 10.96 4.16 10.96 10.04 c0 5.84 -4.84 9.96 -10.68 9.96 z M49 38.44 c1.88 0 2.56 -1.92 2.56 -4.92 c0 -3.12 -1.64 -11.16 -4.8 -11.16 c-1.92 0 -2.6 1.76 -2.6 5 s1.6 11.08 4.84 11.08 z M74.12 20.4 c2.36 0 3.76 1.72 3.76 3.96 c0 2 -0.76 3.76 -3.08 3.76 c-3.64 0 -2 -3.76 -4 -3.76 c-1.28 0 -1.48 2.08 -1.48 3.84 l0 7.44 c0 1.84 2.12 2.32 2.12 3.44 l0 0.16 c0 0.48 -0.4 0.76 -0.96 0.76 l-8.6 0 c-0.56 0 -0.96 -0.28 -0.96 -0.76 l0 -0.16 c0 -1.12 1.6 -1.6 1.6 -3.44 l0 -7.96 c0 -1.88 -1.92 -2.04 -1.92 -3.2 l0 -0.12 c0 -0.48 0.32 -0.84 0.92 -1.16 l5.64 -2.64 c1.04 -0.48 1.44 0.08 1.44 0.88 l0 2.92 c0.88 -2.56 2.76 -3.96 5.52 -3.96 z M95.28 33.68 c0.56 -0.56 1.52 -0.32 1.48 0.56 c-0.08 2.2 -2.88 6.16 -8.12 6.16 c-5.8 0 -9.88 -4.04 -9.88 -10.12 c0 -5.92 4.6 -9.88 9.84 -9.88 s7.64 2.96 7.64 5.48 c0 1.2 -0.64 2 -1.56 2.48 l-7.96 4.48 c1.04 1.64 2.6 2.6 4.56 2.6 c1.72 0 3.28 -0.8 4 -1.76 z M87.88 22.36 c-1.64 0 -2.68 1.88 -2.68 4.2 c0 1.56 0.2 3 0.6 4.2 l3.72 -2.24 c0.64 -0.44 1.04 -1.2 1.04 -2.04 c0 -1.28 -0.64 -4.12 -2.68 -4.12 z M120.16 35.64 c0.12 1.84 1.44 2.32 1.44 3.48 l0 0.16 c0 0.48 -0.4 0.76 -0.96 0.76 l-8 0 c-0.6 0 -0.96 -0.28 -0.96 -0.76 l0 -0.16 c0 -1.16 1.56 -1.64 1.44 -3.48 l-0.4 -7.16 c-0.2 -3.96 -0.96 -5.44 -2.76 -5.44 c-1.76 0 -2.6 1.56 -2.6 3.88 l0 8.72 c0 1.84 1.76 2.32 1.76 3.48 l0 0.16 c0 0.48 -0.36 0.76 -0.96 0.76 l-8.64 0 c-0.6 0 -0.96 -0.28 -0.96 -0.76 l0 -0.16 c0 -1.16 1.76 -1.64 1.76 -3.48 l0 -7.88 c0 -1.92 -2.12 -2.16 -2.12 -3.32 l0 -0.12 c0 -0.48 0.4 -0.72 0.96 -1 l5.6 -2.76 c1 -0.52 1.52 0.16 1.52 0.96 l0 1.88 c1.08 -1.92 3.08 -3 5.72 -3 c3.48 0 7.16 1.96 7.64 8.32 z M133.24 40.4 c-6.28 0 -10.4 -4.8 -10.4 -10.04 c0 -6.24 4.72 -9.92 10.16 -9.96 c4.68 -0.04 8.52 2.36 8.52 5.92 c0 1.2 -0.76 2.4 -2.92 2.32 c-4.08 -0.24 -3.72 -6.32 -6.68 -6.28 c-1.68 0.04 -2.8 2.04 -2.8 4.48 c0 5.2 2.56 8.64 6.52 8.64 c2.24 0 3.6 -1.2 4.44 -2.32 c0.52 -0.64 1.52 -0.44 1.52 0.44 c-0.12 3.48 -2.88 6.8 -8.36 6.8 z M159.8 33.68 c0.56 -0.56 1.52 -0.32 1.48 0.56 c-0.08 2.2 -2.88 6.16 -8.12 6.16 c-5.8 0 -9.88 -4.04 -9.88 -10.12 c0 -5.92 4.6 -9.88 9.84 -9.88 s7.64 2.96 7.64 5.48 c0 1.2 -0.64 2 -1.56 2.48 l-7.96 4.48 c1.04 1.64 2.6 2.6 4.56 2.6 c1.72 0 3.28 -0.8 4 -1.76 z M152.4 22.36 c-1.64 0 -2.68 1.88 -2.68 4.2 c0 1.56 0.2 3 0.6 4.2 l3.72 -2.24 c0.64 -0.44 1.04 -1.2 1.04 -2.04 c0 -1.28 -0.64 -4.12 -2.68 -4.12 z"></path></g>
&#x9;&#x9;&#x9;</g>
&#x9;&#x9;</svg>